<?xml version="1.0" standalone="no"?>
<!DOCTYPE svg PUBLIC "-//W3C//DTD SVG 20010904//EN"
 "http://www.w3.org/TR/2001/REC-SVG-20010904/DTD/svg10.dtd">
<svg version="1.0" xmlns="http://www.w3.org/2000/svg"
 width="300.000000pt" height="225.000000pt" viewBox="0 0 300.000000 225.000000"
 preserveAspectRatio="xMidYMid meet">
<metadata>
Created by potrace 1.10, written by Peter Selinger 2001-2011
</metadata>
<g transform="translate(0.000000,225.000000) scale(0.100000,-0.100000)"
fill="#000000" stroke="none">
<path d="M807 1589 c-12 -19 -16 -87 -22 -345 -8 -360 -9 -352 62 -341 62 11
176 71 229 123 58 57 90 117 105 200 25 133 -6 198 -146 305 -90 68 -100 73
-155 77 -53 4 -59 2 -73 -19z m153 -85 c82 -59 128 -102 146 -136 19 -36 18
-111 -2 -179 -22 -74 -114 -166 -198 -198 -32 -12 -59 -20 -60 -19 -1 2 0 132
2 291 l4 287 22 0 c12 0 51 -21 86 -46z"/>
<path d="M2115 1578 c-7 -23 -25 -328 -25 -434 0 -94 2 -104 21 -114 25 -14
106 -5 162 17 77 31 102 112 52 171 -30 36 -100 72 -138 72 l-27 0 7 135 c5
102 3 138 -7 150 -15 18 -39 20 -45 3z m149 -398 c29 -29 29 -30 11 -50 -16
-18 -72 -40 -102 -40 -9 0 -13 19 -13 63 0 35 3 66 6 69 11 12 69 -13 98 -42z"/>
<path d="M133 1560 c-59 -36 -82 -125 -48 -190 15 -28 14 -30 -5 -30 -19 0
-20 -6 -20 -170 l0 -170 80 0 c44 0 80 -2 80 -5 0 -2 -20 -33 -45 -68 -25 -36
-45 -68 -45 -72 0 -20 48 6 75 41 16 22 40 54 52 70 l22 29 0 -72 c1 -66 3
-73 21 -73 17 0 19 8 22 71 l3 72 49 -72 c37 -54 55 -71 73 -71 12 0 23 2 23
5 0 2 -20 33 -45 68 -25 36 -45 68 -45 71 0 3 36 6 80 6 l80 0 0 35 c0 34 1
35 28 29 15 -4 37 -11 50 -15 13 -5 28 -9 33 -9 5 0 9 56 9 130 0 144 4 138
-73 115 l-47 -14 0 34 c0 25 -5 35 -15 35 -12 0 -13 4 -5 19 25 47 2 127 -42
148 -44 21 -59 23 -100 8 -40 -13 -42 -13 -60 11 -44 55 -126 70 -185 34z
m126 -36 c34 -25 53 -76 40 -111 -31 -81 -117 -96 -171 -29 -20 24 -23 77 -8
106 24 45 98 63 139 34z m211 -66 c11 -12 20 -32 20 -45 0 -29 -42 -73 -68
-73 -33 0 -72 38 -72 71 0 62 78 92 120 47z m136 -355 c-3 -3 -17 -1 -33 4
-26 9 -28 14 -31 65 -3 54 -3 55 30 64 l33 10 3 -69 c2 -38 1 -72 -2 -74z"/>
<path d="M1785 1568 c-7 -20 -25 -323 -25 -425 0 -84 2 -93 21 -104 27 -14
131 -4 170 16 64 34 96 105 69 156 -16 29 -88 61 -141 63 l-48 1 2 150 c2 149
2 150 -21 153 -12 2 -24 -3 -27 -10z m153 -378 c28 -18 31 -23 22 -41 -13 -24
-67 -49 -105 -49 -24 0 -25 3 -25 55 l0 55 38 0 c20 0 52 -9 70 -20z"/>
<path d="M2405 1511 c-3 -6 -1 -38 6 -71 19 -96 87 -174 177 -200 23 -7 42
-16 42 -20 0 -3 -17 -34 -37 -68 -53 -86 -133 -174 -208 -228 -65 -46 -82 -78
-49 -91 56 -21 276 194 340 332 30 65 97 312 90 331 -3 8 -15 14 -26 14 -23 0
-30 -14 -65 -135 -12 -44 -28 -80 -34 -79 -6 1 -20 2 -31 3 -12 0 -43 22 -70
47 -40 38 -54 59 -68 108 -14 47 -23 62 -39 64 -12 2 -24 -2 -28 -7z"/>
<path d="M1382 1452 c-103 -32 -187 -225 -139 -318 18 -35 79 -80 134 -100
101 -35 242 9 300 95 39 58 25 162 -32 237 -47 62 -191 109 -263 86z m136 -78
c56 -23 91 -62 108 -121 21 -72 4 -105 -73 -140 -76 -35 -156 -30 -210 14 -34
27 -38 36 -41 82 -2 41 3 62 24 102 16 28 39 57 53 64 35 19 93 19 139 -1z"/>
</g>
</svg>
